<?xml version="1.0" encoding="UTF-8"?>
<svg id="Layer_1" data-name="Layer 1" xmlns="http://www.w3.org/2000/svg" viewBox="0 0 610 413.05">
  <defs>
    <style>
      .cls-1 {
        fill: #563c2f;
      }
    </style>
  </defs>
  <path class="cls-1" d="M595.42,149.54h-46.18c-9.3,0-16.86-7.56-16.86-16.86s7.56-16.86,16.86-16.86h46.18v-29.53h-46.18c-25.58,0-46.39,20.81-46.39,46.39,0,5.95,1.17,11.63,3.22,16.86h-134.96c-9.3,0-16.86-7.56-16.86-16.86V44.32l13.93-23.56c-1.82-1.08-3.51-2.39-5.02-3.9-7.31-7.3-8.91-14.6-8.91-16.79h-29.53v132.61c0,25.58,20.81,46.39,46.39,46.39h224.31v-29.53Z"/>
  <polygon class="cls-1" points="69.99 229.75 53.49 213.26 32.65 234.1 53.49 254.94 69.99 238.45 86.48 254.94 107.32 234.1 86.48 213.26 69.99 229.75"/>
  <rect class="cls-1" x="377.49" y="377.47" width="29.48" height="29.48" transform="translate(-162.45 392.22) rotate(-45)"/>
  <path class="cls-1" d="M46.38,140.18h15.08l15.85-29.53h-30.93c-9.3,0-16.86-7.58-16.86-16.86s7.55-16.88,16.86-16.88h31.41v55.77c0,25.58,20.81,46.39,46.38,46.39h46.39v-38.9h82.11c25.58,0,46.39-20.81,46.39-46.39v-26.24h-29.53v26.24c0,9.3-7.56,16.86-16.86,16.86h-82.11V45.69l14.74-24.93c-1.82-1.08-3.51-2.39-5.02-3.9-7.31-7.3-8.91-14.6-8.91-16.79h-30.34v149.47h-16.86c-9.29,0-16.86-7.56-16.86-16.86v-55.77h.01v-29.53h-60.95c-4.38,0-8.64.62-12.65,1.77C14.3,54.67,0,72.58,0,93.79c0,25.57,20.82,46.38,46.38,46.38Z"/>
  <polygon class="cls-1" points="69.99 25.26 86.48 41.75 107.32 20.91 86.48 .07 69.99 16.56 53.49 .07 32.65 20.91 53.49 41.75 69.99 25.26"/>
  <path class="cls-1" d="M604.98,230.05c-7.31-7.3-8.91-14.6-8.91-16.79h-29.53v164.24h29.53v-119.99l13.93-23.56c-1.82-1.08-3.51-2.39-5.02-3.9Z"/>
  <path class="cls-1" d="M171.38,213.26h-30.34v132.61c0,9.3-7.56,16.86-16.86,16.86s-16.86-7.56-16.86-16.86v-55.77h.01v-29.53h-60.95c-4.38,0-8.64.62-12.65,1.77-19.44,5.51-33.74,23.43-33.74,44.64,0,25.57,20.82,46.38,46.38,46.38h15.08l15.85-29.53h-30.93c-9.3,0-16.86-7.58-16.86-16.86s7.55-16.88,16.86-16.88h31.41v55.77c0,25.58,20.81,46.39,46.39,46.39s46.38-20.81,46.38-46.39v-86.99l14.74-24.93c-1.82-1.08-3.51-2.39-5.02-3.9-7.31-7.3-8.91-14.6-8.91-16.79Z"/>
  <path class="cls-1" d="M243.27,290.27v-.17h-29.53v55.77c0,9.3-7.56,16.86-16.86,16.86v29.53c25.58,0,46.39-20.81,46.39-46.39v-11.35l13.93-23.56c-1.82-1.08-3.51-2.39-5.02-3.9-7.31-7.3-8.91-14.6-8.91-16.79Z"/>
  <path class="cls-1" d="M511.68,345.87c0,9.3-7.56,16.86-16.86,16.86h-32.29l-22.9-22.9c2.35-9.26,10.76-16.12,20.74-16.12h14.76v-14.76c0-28.02-22.74-50.82-50.73-50.93h-62.24v46.1l26.23,26.22h-26.08v-.02h-29.53v15.55c0,9.3-7.56,16.86-16.86,16.86s-16.86-7.56-16.86-16.86v-88.36l13.93-23.56c-1.82-1.08-3.51-2.39-5.02-3.9-7.31-7.3-8.91-14.6-8.91-16.79h-29.53v132.61c0,25.58,20.81,46.39,46.39,46.39,20.7,0,38.26-13.63,44.22-32.39h57.78l32.39,32.39h44.52c25.58,0,46.39-20.81,46.39-46.39v-132.61h-29.53v132.61ZM417.49,317.68l-25.79-25.79v-4.34h32.52c7.59,0,14.27,3.97,18.07,9.95-10.26,3.91-18.95,11.06-24.8,20.18Z"/>
  <path class="cls-1" d="M231.71,82.31h23.07v-14.76h-23.07c-4.64,0-8.42-3.78-8.42-8.42s3.78-8.42,8.42-8.42h13.25v-14.76h-13.25c-12.78,0-23.18,10.4-23.18,23.18,0,2.97.58,5.8,1.61,8.42h-5.33l-7.54-7.54-10.44,10.44,11.87,11.87h33.02Z"/>
  <rect class="cls-1" x="458.58" width="136.84" height="29.53"/>
</svg>
