<svg width="1438" height="56" viewBox="0 0 1438 56" fill="none" xmlns="http://www.w3.org/2000/svg">
<rect x="10.4707" y="-24.8003" width="36.3231" height="36.3231" fill="#BBA188"/>
<rect x="23.6285" y="-35.3636" width="10.1927" height="57.4497" fill="#BBA188"/>
<rect x="37.2783" y="-15.236" width="17.107" height="17.107" transform="rotate(90 37.2783 -15.236)" fill="#F4F3EF"/>
<rect x="31.1249" y="6.88965" width="4.80043" height="27.057" transform="rotate(-180 31.1249 6.88965)" fill="#F4F3EF"/>
<rect x="470.717" y="-24.8002" width="36.3231" height="36.3231" fill="#BBA188"/>
<rect x="483.875" y="-35.3635" width="10.1927" height="57.4497" fill="#BBA188"/>
<rect x="497.525" y="-15.2359" width="17.107" height="17.107" transform="rotate(90 497.525 -15.2359)" fill="#F4F3EF"/>
<rect x="491.371" y="6.88977" width="4.80043" height="27.057" transform="rotate(-180 491.371 6.88977)" fill="#F4F3EF"/>
<rect x="930.87" y="-24.8002" width="36.3231" height="36.3231" fill="#BBA188"/>
<rect x="944.028" y="-35.3635" width="10.1927" height="57.4497" fill="#BBA188"/>
<rect x="957.677" y="-15.2359" width="17.107" height="17.107" transform="rotate(90 957.677 -15.2359)" fill="#F4F3EF"/>
<rect x="951.524" y="6.88977" width="4.80043" height="27.057" transform="rotate(-180 951.524 6.88977)" fill="#F4F3EF"/>
<rect x="240.548" y="-24.8002" width="36.3231" height="36.3231" fill="#BBA188"/>
<rect x="253.706" y="-35.3635" width="10.1927" height="57.4497" fill="#BBA188"/>
<rect x="267.355" y="-15.2359" width="17.107" height="17.107" transform="rotate(90 267.355 -15.2359)" fill="#F4F3EF"/>
<rect x="261.202" y="6.88977" width="4.80043" height="27.057" transform="rotate(-180 261.202 6.88977)" fill="#F4F3EF"/>
<rect x="700.793" y="-24.8002" width="36.3231" height="36.3231" fill="#BBA188"/>
<rect x="713.951" y="-35.3635" width="10.1927" height="57.4497" fill="#BBA188"/>
<rect x="727.601" y="-15.2359" width="17.107" height="17.107" transform="rotate(90 727.601 -15.2359)" fill="#F4F3EF"/>
<rect x="721.447" y="6.88977" width="4.80043" height="27.057" transform="rotate(-180 721.447 6.88977)" fill="#F4F3EF"/>
<rect x="1160.95" y="-24.8002" width="36.3231" height="36.3231" fill="#BBA188"/>
<rect x="1174.1" y="-35.3635" width="10.1927" height="57.4497" fill="#BBA188"/>
<rect x="1187.75" y="-15.2359" width="17.107" height="17.107" transform="rotate(90 1187.75 -15.2359)" fill="#F4F3EF"/>
<rect x="1181.6" y="6.88977" width="4.80043" height="27.057" transform="rotate(-180 1181.6 6.88977)" fill="#F4F3EF"/>
<rect x="125.463" y="-24.8002" width="36.3231" height="36.3231" fill="#BBA188"/>
<rect x="138.621" y="-35.3635" width="10.1927" height="57.4497" fill="#BBA188"/>
<rect x="152.271" y="-15.2359" width="17.107" height="17.107" transform="rotate(90 152.271 -15.2359)" fill="#F4F3EF"/>
<rect x="146.117" y="6.88977" width="4.80043" height="27.057" transform="rotate(-180 146.117 6.88977)" fill="#F4F3EF"/>
<rect x="585.708" y="-24.8002" width="36.3231" height="36.3231" fill="#BBA188"/>
<rect x="598.866" y="-35.3635" width="10.1927" height="57.4497" fill="#BBA188"/>
<rect x="612.516" y="-15.2359" width="17.107" height="17.107" transform="rotate(90 612.516 -15.2359)" fill="#F4F3EF"/>
<rect x="606.362" y="6.88977" width="4.80043" height="27.057" transform="rotate(-180 606.362 6.88977)" fill="#F4F3EF"/>
<rect x="1045.86" y="-24.8002" width="36.3231" height="36.3231" fill="#BBA188"/>
<rect x="1059.02" y="-35.3635" width="10.1927" height="57.4497" fill="#BBA188"/>
<rect x="1072.67" y="-15.2359" width="17.107" height="17.107" transform="rotate(90 1072.67 -15.2359)" fill="#F4F3EF"/>
<rect x="1066.52" y="6.88977" width="4.80043" height="27.057" transform="rotate(-180 1066.52 6.88977)" fill="#F4F3EF"/>
<rect x="355.539" y="-24.8002" width="36.3231" height="36.3231" fill="#BBA188"/>
<rect x="368.697" y="-35.3635" width="10.1927" height="57.4497" fill="#BBA188"/>
<rect x="382.346" y="-15.2358" width="17.107" height="17.107" transform="rotate(90 382.346 -15.2358)" fill="#F4F3EF"/>
<rect x="376.193" y="6.88989" width="4.80043" height="27.057" transform="rotate(-180 376.193 6.88989)" fill="#F4F3EF"/>
<rect x="815.785" y="-24.8002" width="36.3231" height="36.3231" fill="#BBA188"/>
<rect x="828.943" y="-35.3635" width="10.1927" height="57.4497" fill="#BBA188"/>
<rect x="842.593" y="-15.2359" width="17.107" height="17.107" transform="rotate(90 842.593 -15.2359)" fill="#F4F3EF"/>
<rect x="836.44" y="6.88977" width="4.80043" height="27.057" transform="rotate(-180 836.44 6.88977)" fill="#F4F3EF"/>
<rect x="1275.94" y="-24.8002" width="36.3231" height="36.3231" fill="#BBA188"/>
<rect x="1289.1" y="-35.3635" width="10.1927" height="57.4497" fill="#BBA188"/>
<rect x="1302.75" y="-15.2359" width="17.107" height="17.107" transform="rotate(90 1302.75 -15.2359)" fill="#F4F3EF"/>
<rect x="1296.59" y="6.88977" width="4.80043" height="27.057" transform="rotate(-180 1296.59 6.88977)" fill="#F4F3EF"/>
<rect x="1391.02" y="-24.8002" width="36.3231" height="36.3231" fill="#BBA188"/>
<rect x="1404.18" y="-35.3635" width="10.1927" height="57.4497" fill="#BBA188"/>
<rect x="1417.83" y="-15.2359" width="17.107" height="17.107" transform="rotate(90 1417.83 -15.2359)" fill="#F4F3EF"/>
<rect x="1411.68" y="6.88977" width="4.80043" height="27.057" transform="rotate(-180 1411.68 6.88977)" fill="#F4F3EF"/>
<rect x="68.0126" y="9.11353" width="36.3231" height="36.3231" fill="#BBA188"/>
<rect x="81.1704" y="-1.44983" width="10.1927" height="57.4497" fill="#BBA188"/>
<rect x="114.992" y="22.1787" width="10.1927" height="57.4497" transform="rotate(90 114.992 22.1787)" fill="#BBA188"/>
<rect x="94.8206" y="18.6779" width="17.107" height="17.107" transform="rotate(90 94.8206 18.6779)" fill="#F4F3EF"/>
<rect x="99.7956" y="24.8748" width="4.80043" height="27.057" transform="rotate(90 99.7956 24.8748)" fill="#F4F3EF"/>
<rect x="88.6672" y="40.8033" width="4.80043" height="27.057" transform="rotate(-180 88.6672 40.8033)" fill="#F4F3EF"/>
<rect x="528.259" y="9.11353" width="36.3231" height="36.3231" fill="#BBA188"/>
<rect x="541.417" y="-1.44983" width="10.1927" height="57.4497" fill="#BBA188"/>
<rect x="575.238" y="22.1787" width="10.1927" height="57.4497" transform="rotate(90 575.238 22.1787)" fill="#BBA188"/>
<rect x="555.066" y="18.6779" width="17.107" height="17.107" transform="rotate(90 555.066 18.6779)" fill="#F4F3EF"/>
<rect x="560.041" y="24.8748" width="4.80043" height="27.057" transform="rotate(90 560.041 24.8748)" fill="#F4F3EF"/>
<rect x="548.913" y="40.8033" width="4.80043" height="27.057" transform="rotate(-180 548.913 40.8033)" fill="#F4F3EF"/>
<rect x="988.412" y="9.11353" width="36.3231" height="36.3231" fill="#BBA188"/>
<rect x="1001.57" y="-1.44983" width="10.1927" height="57.4497" fill="#BBA188"/>
<rect x="1035.39" y="22.1787" width="10.1927" height="57.4497" transform="rotate(90 1035.39 22.1787)" fill="#BBA188"/>
<rect x="1015.22" y="18.6779" width="17.107" height="17.107" transform="rotate(90 1015.22 18.6779)" fill="#F4F3EF"/>
<rect x="1020.19" y="24.8748" width="4.80043" height="27.057" transform="rotate(90 1020.19 24.8748)" fill="#F4F3EF"/>
<rect x="1009.07" y="40.8033" width="4.80043" height="27.057" transform="rotate(-180 1009.07 40.8033)" fill="#F4F3EF"/>
<rect x="298.089" y="9.11353" width="36.3231" height="36.3231" fill="#BBA188"/>
<rect x="311.247" y="-1.44983" width="10.1927" height="57.4497" fill="#BBA188"/>
<rect x="345.069" y="22.1787" width="10.1927" height="57.4497" transform="rotate(90 345.069 22.1787)" fill="#BBA188"/>
<rect x="324.897" y="18.6779" width="17.107" height="17.107" transform="rotate(90 324.897 18.6779)" fill="#F4F3EF"/>
<rect x="329.872" y="24.8748" width="4.80043" height="27.057" transform="rotate(90 329.872 24.8748)" fill="#F4F3EF"/>
<rect x="318.744" y="40.8033" width="4.80043" height="27.057" transform="rotate(-180 318.744 40.8033)" fill="#F4F3EF"/>
<rect x="758.336" y="9.11353" width="36.3231" height="36.3231" fill="#BBA188"/>
<rect x="771.494" y="-1.44983" width="10.1927" height="57.4497" fill="#BBA188"/>
<rect x="805.315" y="22.1787" width="10.1927" height="57.4497" transform="rotate(90 805.315 22.1787)" fill="#BBA188"/>
<rect x="785.143" y="18.6779" width="17.107" height="17.107" transform="rotate(90 785.143 18.6779)" fill="#F4F3EF"/>
<rect x="790.118" y="24.8748" width="4.80043" height="27.057" transform="rotate(90 790.118 24.8748)" fill="#F4F3EF"/>
<rect x="778.99" y="40.8033" width="4.80043" height="27.057" transform="rotate(-180 778.99 40.8033)" fill="#F4F3EF"/>
<rect x="1218.49" y="9.11353" width="36.3231" height="36.3231" fill="#BBA188"/>
<rect x="1231.65" y="-1.44983" width="10.1927" height="57.4497" fill="#BBA188"/>
<rect x="1265.47" y="22.1787" width="10.1927" height="57.4497" transform="rotate(90 1265.47 22.1787)" fill="#BBA188"/>
<rect x="1245.3" y="18.6779" width="17.107" height="17.107" transform="rotate(90 1245.3 18.6779)" fill="#F4F3EF"/>
<rect x="1250.27" y="24.8748" width="4.80043" height="27.057" transform="rotate(90 1250.27 24.8748)" fill="#F4F3EF"/>
<rect x="1239.14" y="40.8033" width="4.80043" height="27.057" transform="rotate(-180 1239.14 40.8033)" fill="#F4F3EF"/>
<rect x="183.005" y="9.11353" width="36.3231" height="36.3231" fill="#BBA188"/>
<rect x="196.163" y="-1.44983" width="10.1927" height="57.4497" fill="#BBA188"/>
<rect x="229.984" y="22.1787" width="10.1927" height="57.4497" transform="rotate(90 229.984 22.1787)" fill="#BBA188"/>
<rect x="209.812" y="18.6779" width="17.107" height="17.107" transform="rotate(90 209.812 18.6779)" fill="#F4F3EF"/>
<rect x="214.787" y="24.8748" width="4.80043" height="27.057" transform="rotate(90 214.787 24.8748)" fill="#F4F3EF"/>
<rect x="203.659" y="40.8033" width="4.80043" height="27.057" transform="rotate(-180 203.659 40.8033)" fill="#F4F3EF"/>
<rect x="643.251" y="9.11353" width="36.3231" height="36.3231" fill="#BBA188"/>
<rect x="656.409" y="-1.44983" width="10.1927" height="57.4497" fill="#BBA188"/>
<rect x="690.23" y="22.1787" width="10.1927" height="57.4497" transform="rotate(90 690.23 22.1787)" fill="#BBA188"/>
<rect x="670.059" y="18.6779" width="17.107" height="17.107" transform="rotate(90 670.059 18.6779)" fill="#F4F3EF"/>
<rect x="675.034" y="24.8748" width="4.80043" height="27.057" transform="rotate(90 675.034 24.8748)" fill="#F4F3EF"/>
<rect x="663.905" y="40.8033" width="4.80043" height="27.057" transform="rotate(-180 663.905 40.8033)" fill="#F4F3EF"/>
<rect x="1103.4" y="9.11353" width="36.3231" height="36.3231" fill="#BBA188"/>
<rect x="1116.56" y="-1.44983" width="10.1927" height="57.4497" fill="#BBA188"/>
<rect x="1150.38" y="22.1787" width="10.1927" height="57.4497" transform="rotate(90 1150.38 22.1787)" fill="#BBA188"/>
<rect x="1130.21" y="18.6779" width="17.107" height="17.107" transform="rotate(90 1130.21 18.6779)" fill="#F4F3EF"/>
<rect x="1135.19" y="24.8748" width="4.80043" height="27.057" transform="rotate(90 1135.19 24.8748)" fill="#F4F3EF"/>
<rect x="1124.06" y="40.8033" width="4.80043" height="27.057" transform="rotate(-180 1124.06 40.8033)" fill="#F4F3EF"/>
<rect x="413.082" y="9.11353" width="36.3231" height="36.3231" fill="#BBA188"/>
<rect x="426.24" y="-1.44983" width="10.1927" height="57.4497" fill="#BBA188"/>
<rect x="460.061" y="22.1787" width="10.1927" height="57.4497" transform="rotate(90 460.061 22.1787)" fill="#BBA188"/>
<rect x="439.89" y="18.6779" width="17.107" height="17.107" transform="rotate(90 439.89 18.6779)" fill="#F4F3EF"/>
<rect x="444.864" y="24.8748" width="4.80043" height="27.057" transform="rotate(90 444.864 24.8748)" fill="#F4F3EF"/>
<rect x="433.736" y="40.8033" width="4.80043" height="27.057" transform="rotate(-180 433.736 40.8033)" fill="#F4F3EF"/>
<rect x="873.327" y="9.11353" width="36.3231" height="36.3231" fill="#BBA188"/>
<rect x="886.485" y="-1.44983" width="10.1927" height="57.4497" fill="#BBA188"/>
<rect x="920.306" y="22.1787" width="10.1927" height="57.4497" transform="rotate(90 920.306 22.1787)" fill="#BBA188"/>
<rect x="900.135" y="18.6779" width="17.107" height="17.107" transform="rotate(90 900.135 18.6779)" fill="#F4F3EF"/>
<rect x="905.11" y="24.8748" width="4.80043" height="27.057" transform="rotate(90 905.11 24.8748)" fill="#F4F3EF"/>
<rect x="893.981" y="40.8033" width="4.80043" height="27.057" transform="rotate(-180 893.981 40.8033)" fill="#F4F3EF"/>
<rect x="1333.48" y="9.11353" width="36.3231" height="36.3231" fill="#BBA188"/>
<rect x="1346.64" y="-1.44983" width="10.1927" height="57.4497" fill="#BBA188"/>
<rect x="1380.46" y="22.1787" width="10.1927" height="57.4497" transform="rotate(90 1380.46 22.1787)" fill="#BBA188"/>
<rect x="1360.29" y="18.6779" width="17.107" height="17.107" transform="rotate(90 1360.29 18.6779)" fill="#F4F3EF"/>
<rect x="1365.26" y="24.8748" width="4.80043" height="27.057" transform="rotate(90 1365.26 24.8748)" fill="#F4F3EF"/>
<rect x="1354.13" y="40.8033" width="4.80043" height="27.057" transform="rotate(-180 1354.13 40.8033)" fill="#F4F3EF"/>
</svg>
