<svg width="14" height="17" viewBox="0 0 14 17" fill="none" xmlns="http://www.w3.org/2000/svg">
<path d="M8.30566 9.37109C11.0061 9.37109 13.204 11.5691 13.2041 14.2695C13.2041 15.5644 12.1562 16.6123 10.8613 16.6123H2.34277C1.04789 16.6123 0 15.5644 0 14.2695C8.23303e-05 11.5691 2.19797 9.37109 4.89844 9.37109H8.30566ZM4.89844 10.6494C2.90504 10.6494 1.27743 12.2762 1.27734 14.2695C1.27734 14.8573 1.75496 15.335 2.34277 15.335H10.8613C11.4491 15.335 11.9268 14.8573 11.9268 14.2695C11.9267 12.2762 10.2991 10.6494 8.30566 10.6494H4.89844ZM6.60156 0C8.83351 0 10.6484 1.81493 10.6484 4.04688C10.6484 6.27885 8.83354 8.09375 6.60156 8.09375C4.3698 8.0935 2.55566 6.2787 2.55566 4.04688C2.55571 1.81509 4.36982 0.000249756 6.60156 0ZM6.60156 1.27832C5.0769 1.27857 3.83305 2.52216 3.83301 4.04688C3.83301 5.57162 5.07687 6.81518 6.60156 6.81543C8.12646 6.81543 9.37109 5.57177 9.37109 4.04688C9.37105 2.52201 8.12644 1.27832 6.60156 1.27832Z" fill="#BBA188"/>
</svg>
