<svg width="61" height="61" viewBox="0 0 61 61" fill="none" xmlns="http://www.w3.org/2000/svg">
<path d="M0 61L4.28778 45.3357C1.64191 40.7505 0.251624 35.5528 0.254166 30.223C0.261791 13.5598 13.8216 0 30.4821 0C38.5672 0.00254167 46.1566 3.15167 51.8651 8.86533C57.5712 14.579 60.7127 22.1735 60.7101 30.2509C60.7025 46.9166 47.1427 60.4764 30.4821 60.4764C25.4242 60.4739 20.44 59.2056 16.0252 56.7961L0 61ZM16.7673 51.3239C21.0272 53.8528 25.0938 55.3677 30.472 55.3702C44.3189 55.3702 55.5988 44.1005 55.6065 30.2458C55.6115 16.3633 44.385 5.10875 30.4923 5.10367C16.6352 5.10367 5.36291 16.3734 5.35782 30.2255C5.35528 35.8807 7.01244 40.1151 9.79556 44.5452L7.25644 53.8172L16.7673 51.3239ZM45.7092 37.4362C45.5212 37.121 45.0179 36.933 44.2605 36.5543C43.5056 36.1755 39.7922 34.3481 39.0984 34.0965C38.407 33.8448 37.9038 33.7178 37.398 34.4752C36.8948 35.23 35.446 36.933 35.0063 37.4362C34.5666 37.9395 34.1243 38.003 33.3695 37.6243C32.6146 37.2456 30.1797 36.45 27.2949 33.8753C25.0506 31.8725 23.5332 29.3995 23.0935 28.642C22.6538 27.8872 23.0478 27.478 23.4239 27.1018C23.7645 26.7638 24.1788 26.2198 24.5575 25.7776C24.9413 25.3404 25.0659 25.0253 25.32 24.5195C25.5717 24.0162 25.4471 23.574 25.2565 23.1953C25.0659 22.8191 23.5561 19.1006 22.9283 17.5883C22.3132 16.1167 21.6905 16.315 21.228 16.2921L19.7792 16.2667C19.276 16.2667 18.4575 16.4548 17.7662 17.2122C17.0749 17.9696 15.1229 19.7945 15.1229 23.513C15.1229 27.2314 17.8298 30.8228 18.2059 31.326C18.5846 31.8293 23.5307 39.4594 31.1074 42.7305C32.9094 43.5083 34.3175 43.9734 35.413 44.3216C37.2226 44.896 38.8696 44.8147 40.171 44.6215C41.6222 44.4055 44.6392 42.794 45.2695 41.0301C45.8999 39.2637 45.8999 37.7514 45.7092 37.4362Z" fill="#8A1538"/>
</svg>
