<svg width="35" height="40" viewBox="0 0 35 40" fill="none" xmlns="http://www.w3.org/2000/svg">
<path d="M17.209 0C17.605 5.0895e-05 17.9825 0.168223 18.2471 0.462891L18.3828 0.618164C18.4649 0.712868 18.5807 0.848101 18.7188 1.01465C18.9938 1.34654 19.3644 1.80963 19.7373 2.32812C20.1065 2.84152 20.4981 3.43754 20.8037 4.03125C21.086 4.57978 21.3944 5.31174 21.3945 6.0459C21.3945 7.86828 20.23 9.41833 18.6045 9.99316V13.0234H27.752C31.2643 13.0236 34.4178 15.5712 34.418 19.0693C34.418 21.1751 33.2744 22.9352 31.5986 24.0039L30.6143 28.8818C30.141 31.2255 29.7617 33.1033 29.2861 34.5654C28.7951 36.0751 28.1533 37.3033 27.0557 38.2451C25.9494 39.1942 24.658 39.6143 23.1328 39.8115C21.6725 40.0003 19.8512 40 17.6035 40H16.8154C14.5676 40 12.7456 40.0004 11.2852 39.8115C9.76017 39.6143 8.46946 39.1941 7.36328 38.2451C6.2656 37.3033 5.62388 36.0751 5.13281 34.5654C4.65725 33.1033 4.27789 31.2255 3.80469 28.8818L2.81934 24.0049C1.14328 22.9362 0 21.1753 0 19.0693C0.00016479 15.5712 3.15364 13.0236 6.66602 13.0234H15.8135V9.99316C14.1878 9.41842 13.0225 7.8684 13.0225 6.0459C13.0226 5.31185 13.331 4.57975 13.6133 4.03125C13.9189 3.43748 14.3114 2.84156 14.6807 2.32812C15.0535 1.80967 15.4232 1.34653 15.6982 1.01465C15.8363 0.848115 15.9521 0.712906 16.0342 0.618164L16.1699 0.462891C16.4346 0.167989 16.8127 0 17.209 0ZM22.4805 22.8682C21.1959 24.2737 19.237 25.1162 17.209 25.1162C15.181 25.1162 13.2221 24.2737 11.9375 22.8682C10.6529 24.2736 8.69392 25.1162 6.66602 25.1162C6.40212 25.1162 6.1405 25.0994 5.88184 25.0713L6.52344 28.2441C7.01784 30.6926 7.36634 32.4115 7.78613 33.7021C8.19613 34.9627 8.62547 35.6516 9.18066 36.1279C9.72743 36.5969 10.4274 36.8867 11.6436 37.0439C12.9042 37.207 14.5451 37.209 16.9102 37.209H17.5088C19.8739 37.209 21.5147 37.207 22.7754 37.0439C23.9915 36.8867 24.6915 36.5969 25.2383 36.1279C25.7934 35.6517 26.2219 34.9626 26.6318 33.7021C27.0516 32.4115 27.4011 30.6927 27.8955 28.2441L28.5361 25.0713C28.2775 25.0994 28.0158 25.1162 27.752 25.1162C25.7241 25.1162 23.7651 24.2736 22.4805 22.8682ZM6.66602 15.8135C4.35649 15.8137 2.79021 17.4304 2.79004 19.0693C2.79004 20.7084 4.35636 22.325 6.66602 22.3252C8.70321 22.3252 10.2641 21.0514 10.5781 19.6865C10.724 19.0533 11.2877 18.6046 11.9375 18.6045C12.5875 18.6045 13.152 19.0532 13.2979 19.6865C13.6118 21.0514 15.1718 22.3252 17.209 22.3252C19.2462 22.3252 20.8061 21.0514 21.1201 19.6865C21.266 19.0532 21.8305 18.6045 22.4805 18.6045C23.1303 18.6046 23.6939 19.0533 23.8398 19.6865C24.1538 21.0514 25.7148 22.3252 27.752 22.3252C30.0616 22.325 31.6279 20.7084 31.6279 19.0693C31.6278 17.4304 30.0615 15.8137 27.752 15.8135H6.66602ZM16.9463 3.95801C16.618 4.4145 16.3123 4.88497 16.0947 5.30762C15.9865 5.51797 15.9101 5.69625 15.8633 5.83887C15.8193 5.97297 15.8142 6.03785 15.8135 6.0459C15.8135 6.81652 16.4384 7.44141 17.209 7.44141C17.9793 7.44126 18.6043 6.81721 18.6045 6.04688C18.6038 6.03911 18.5978 5.97333 18.5537 5.83887C18.5069 5.69627 18.4305 5.5179 18.3223 5.30762C18.1047 4.8851 17.7998 4.41436 17.4717 3.95801C17.3839 3.83593 17.2956 3.71628 17.209 3.60156C17.1223 3.71633 17.0341 3.83588 16.9463 3.95801Z" fill="#88664D"/>
</svg>
