<svg width="43" height="35" viewBox="0 0 43 35" fill="none" xmlns="http://www.w3.org/2000/svg">
<path d="M35.2461 0C39.3586 0 42.6923 3.3338 42.6924 7.44629V27.3037C42.6923 31.4162 39.3586 34.75 35.2461 34.75H7.44629C3.33385 34.7499 7.51666e-05 31.4161 0 27.3037V7.44629C7.54586e-05 3.33385 3.33385 7.54707e-05 7.44629 0H35.2461ZM7.44629 2.97852C4.97887 2.97859 2.97859 4.97887 2.97852 7.44629V27.3037C2.97859 29.7711 4.97887 31.7714 7.44629 31.7715H35.2461C37.7136 31.7715 39.7138 29.7712 39.7139 27.3037V7.44629C39.7138 4.97882 37.7136 2.97852 35.2461 2.97852H7.44629ZM14.3486 20.5586C17.0547 20.5225 19.6697 21.8571 21.5557 24.4395C22.0408 25.1037 21.8957 26.0354 21.2314 26.5205C20.5672 27.0054 19.6354 26.8605 19.1504 26.1963C17.7679 24.3032 16.0237 23.5154 14.3887 23.5371C12.7381 23.5591 10.9866 24.4099 9.62891 26.2139C9.13429 26.8707 8.20099 27.0021 7.54395 26.5078C6.88677 26.0132 6.75441 25.0791 7.24902 24.4219C9.08564 21.9817 11.6579 20.5945 14.3486 20.5586ZM31.2744 19.8574C32.0969 19.8575 32.7637 20.5242 32.7637 21.3467C32.7636 22.1692 32.0969 22.836 31.2744 22.8359H25.3174C24.4951 22.8358 23.8283 22.169 23.8281 21.3467C23.8282 20.5243 24.495 19.8575 25.3174 19.8574H31.2744ZM14.3945 8.93555C17.1361 8.93565 19.3584 11.1588 19.3584 13.9004C19.3582 16.6418 17.136 18.8642 14.3945 18.8643C11.653 18.8643 9.4299 16.6419 9.42969 13.9004C9.42969 11.1587 11.6528 8.93555 14.3945 8.93555ZM14.3945 11.9141C13.2979 11.9141 12.4082 12.8037 12.4082 13.9004C12.4084 14.9969 13.298 15.8857 14.3945 15.8857C15.491 15.8856 16.3797 14.9968 16.3799 13.9004C16.3799 12.8038 15.4911 11.9142 14.3945 11.9141ZM35.2461 11.9141C36.0686 11.9141 36.7354 12.5818 36.7354 13.4043C36.7351 14.2266 36.0685 14.8936 35.2461 14.8936L25.3174 14.8926C24.495 14.8924 23.8281 14.2258 23.8281 13.4033C23.8283 12.581 24.4951 11.9142 25.3174 11.9141H35.2461Z" fill="#88664D"/>
</svg>
