<svg width="40" height="40" viewBox="0 0 40 40" fill="none" xmlns="http://www.w3.org/2000/svg">
<path d="M19.875 0C30.8517 0 39.75 8.89834 39.75 19.875C39.75 30.8517 30.8517 39.75 19.875 39.75C8.89834 39.75 2.73827e-07 30.8517 0 19.875C0 8.89834 8.89834 2.73827e-07 19.875 0ZM19.875 2.77344C10.43 2.77344 2.77344 10.43 2.77344 19.875C2.77344 29.32 10.43 36.9766 19.875 36.9766C29.32 36.9766 36.9766 29.32 36.9766 19.875C36.9766 10.43 29.32 2.77344 19.875 2.77344ZM19.999 12.3584C21.6862 11.0916 24.4669 10.3569 27.499 12.2168C29.6831 13.5565 30.8298 16.2949 30.4248 19.3154C30.016 22.3632 28.0593 25.7051 24.084 28.6475C24.0322 28.6858 23.9807 28.7239 23.9297 28.7617C22.6385 29.7194 21.5772 30.5068 19.875 30.5068C18.1729 30.5068 17.1125 29.7194 15.8213 28.7617C15.7701 28.7238 15.718 28.6859 15.666 28.6475C11.6909 25.7052 9.73394 22.3631 9.3252 19.3154C8.92025 16.2949 10.0679 13.5565 12.252 12.2168C15.2841 10.3571 18.0649 11.0915 19.752 12.3584C19.7956 12.3912 19.8363 12.4222 19.875 12.4512C19.9137 12.4222 19.9553 12.3912 19.999 12.3584ZM26.0488 14.5811C24.1233 13.4 22.5765 13.891 21.6641 14.5762L21.6318 14.6006C21.3933 14.7798 21.1626 14.9531 20.9717 15.0781C20.8696 15.1449 20.7366 15.2263 20.5869 15.2939C20.4475 15.3569 20.1942 15.4541 19.875 15.4541C19.5562 15.4541 19.3035 15.3569 19.1641 15.2939C19.0143 15.2262 18.8804 15.145 18.7783 15.0781C18.5874 14.9531 18.3568 14.7798 18.1182 14.6006L18.0859 14.5762C17.1735 13.8911 15.6273 13.4004 13.7021 14.5811C12.633 15.2369 11.7847 16.7886 12.0742 18.9473C12.3601 21.0788 13.7875 23.806 17.3164 26.418C18.8121 27.525 19.1651 27.7334 19.875 27.7334C20.585 27.7334 20.9378 27.5251 22.4336 26.418C25.9625 23.806 27.3899 21.0788 27.6758 18.9473C27.9653 16.7886 27.118 15.2369 26.0488 14.5811Z" fill="#88664D"/>
</svg>
