<svg width="54" height="54" viewBox="0 0 54 54" fill="none" xmlns="http://www.w3.org/2000/svg">
<path fill-rule="evenodd" clip-rule="evenodd" d="M39.4087 15.215C39.2872 14.9018 39.036 14.6506 38.7228 14.5291C37.9346 14.2235 36.7345 14.1518 35.4582 14.3638C34.1821 14.5757 33.073 15.0306 32.442 15.5405C32.1418 15.783 31.8388 16.123 31.4862 16.5716C31.372 16.7169 31.236 16.8962 31.0907 17.0878C30.8536 17.4005 30.5916 17.7459 30.3588 18.03C29.5516 19.0147 28.3865 20.1953 26.5873 20.3644C25.7891 20.4395 24.9795 20.2411 23.9878 19.9981C23.9259 19.9829 23.8632 19.9675 23.7998 19.9521L16.7703 18.2421C15.8246 18.0121 15.1956 18.0099 14.6832 18.1497C14.1779 18.2875 13.6295 18.6063 12.9257 19.3054L22.3177 25.2C22.654 25.4111 22.8844 25.7554 22.9513 26.1467C23.0182 26.5381 22.9153 26.9394 22.6682 27.2502L20.0012 30.6054C19.9491 30.6709 19.8977 30.7358 19.8468 30.8C19.0355 31.8236 18.3548 32.6825 17.3711 33.1446C16.2624 33.6655 14.9864 33.7203 13.9317 33.6908C13.4058 33.6762 12.8803 33.6374 12.4078 33.6026L12.358 33.5989C11.8574 33.562 11.4262 33.5313 11.0431 33.526C10.9892 33.5252 10.8397 33.5396 10.6173 33.6065C10.4052 33.6702 10.1813 33.7655 9.98399 33.8813C9.94583 33.9036 9.91021 33.9259 9.87705 33.9478C9.93862 33.9731 10.0083 34.0021 10.0763 34.0319L15.172 36.2738C15.2119 36.2914 15.2524 36.309 15.2933 36.3269C15.7768 36.5378 16.3185 36.7742 16.741 37.1968C17.1636 37.6194 17.4 38.161 17.6109 38.6445C17.6288 38.6854 17.6464 38.7259 17.664 38.7659L19.9059 43.8615C19.9358 43.9295 19.9647 43.9992 19.99 44.0608C20.0119 44.0276 20.0342 43.992 20.0565 43.9538C20.1723 43.7565 20.2676 43.5326 20.3314 43.3205C20.3982 43.0981 20.4126 42.9486 20.4118 42.8947C20.4065 42.5116 20.3758 42.0804 20.3389 41.5798L20.3353 41.5304C20.3004 41.0578 20.2616 40.5322 20.247 40.0061C20.2175 38.9514 20.2723 37.6754 20.7932 36.5667C21.2553 35.583 22.1142 34.9023 23.1378 34.091C23.202 34.0401 23.2669 33.9887 23.3324 33.9366L26.6876 31.2696C26.9984 31.0225 27.3997 30.9196 27.7911 30.9865C28.1824 31.0534 28.5267 31.2839 28.7378 31.6201L34.6326 41.0125C35.332 40.3089 35.6508 39.7605 35.7887 39.2552C35.9285 38.7428 35.9264 38.1137 35.6962 37.1679L33.986 30.1389C33.9704 30.0752 33.955 30.0123 33.9398 29.95C33.6967 28.9584 33.4983 28.1487 33.5734 27.3505C33.7425 25.5513 34.9231 24.3862 35.9078 23.579C36.1919 23.3462 36.5373 23.0842 36.85 22.8471C37.0416 22.7018 37.2209 22.5658 37.3662 22.4516C37.8149 22.099 38.1548 21.796 38.3974 21.4958C38.9072 20.8649 39.3621 19.7557 39.574 18.4797C39.786 17.2033 39.7143 16.0032 39.4087 15.215ZM39.7319 11.9271C40.7763 12.3322 41.6057 13.1615 42.0107 14.2059C42.5603 15.6232 42.5867 17.3736 42.3271 18.9368C42.0675 20.5004 41.4813 22.1196 40.5681 23.2498C40.1233 23.8003 39.583 24.2589 39.0908 24.6458C38.8502 24.8349 38.642 24.9919 38.4453 25.1403C38.1854 25.3364 37.9454 25.5174 37.677 25.7374C36.8022 26.4545 36.4101 26.9928 36.3519 27.6117C36.3266 27.8808 36.3852 28.1984 36.6972 29.4774L38.4079 36.5081C38.7013 37.7137 38.7899 38.8581 38.4811 39.9899C38.1716 41.124 37.507 42.085 36.5861 43.006C36.0558 43.5362 35.2514 44.1255 34.2307 43.9793C33.2426 43.8378 32.637 43.0827 32.2839 42.5201L27.2032 34.4249L25.069 36.1213C23.7447 37.174 23.4674 37.4378 23.3192 37.7533C23.0914 38.2382 23.0095 38.9558 23.0367 39.9283C23.0496 40.3894 23.0842 40.8592 23.1203 41.3494L23.1222 41.3747C23.1578 41.8588 23.1956 42.3747 23.2024 42.8556C23.2135 43.6493 22.9083 44.6079 22.4639 45.3657C22.0521 46.0678 21.2186 47.0975 19.9033 47.1691C18.8333 47.2273 18.1889 46.5547 17.8761 46.0749C17.6555 45.7366 17.4689 45.2749 17.3868 45.0717C17.3709 45.0322 17.3589 45.0025 17.3513 44.9854L15.1095 39.8897C14.9677 39.5673 14.8898 39.3924 14.8229 39.266C14.7936 39.2106 14.7755 39.1826 14.7671 39.1707C14.7552 39.1623 14.7272 39.1442 14.6718 39.1149C14.5454 39.048 14.3704 38.9701 14.0481 38.8283L8.95241 36.5865C8.93527 36.5789 8.90556 36.5669 8.8661 36.551C8.66295 36.4689 8.2012 36.2823 7.86286 36.0617C7.38308 35.7489 6.71047 35.1045 6.7687 34.0345C6.84027 32.7192 7.87002 31.8857 8.57216 31.4739C9.32991 31.0295 10.2885 30.7243 11.0822 30.7354C11.5631 30.7422 12.0791 30.78 12.5631 30.8156L12.5884 30.8175C13.0786 30.8536 13.5484 30.8883 14.0095 30.9011C14.982 30.9283 15.6996 30.8464 16.1845 30.6186C16.5 30.4704 16.7638 30.1931 17.8165 28.8688L19.513 26.7347L11.4184 21.6543C10.8557 21.3012 10.1002 20.6953 9.95876 19.707C9.81266 18.6859 10.4025 17.8815 10.933 17.3513C11.854 16.4308 12.8149 15.7666 13.9488 15.4573C15.0803 15.1486 16.2245 15.2372 17.4299 15.5304L24.4595 17.2403C25.7384 17.5524 26.0571 17.6112 26.3261 17.5859C26.945 17.5277 27.4833 17.1356 28.2004 16.2608C28.4204 15.9924 28.6014 15.7524 28.7975 15.4925C28.9459 15.2958 29.1029 15.0876 29.292 14.8471C29.6789 14.3548 30.1375 13.8145 30.688 13.3697C31.8182 12.4565 33.4374 11.8703 35.001 11.6107C36.5642 11.3511 38.3146 11.3775 39.7319 11.9271ZM14.7745 39.1763L14.7714 39.1737L14.7745 39.1763ZM14.7641 39.1664L14.7616 39.1633L14.7641 39.1664Z" fill="#88664D"/>
</svg>
