<svg width="35" height="40" viewBox="0 0 35 40" fill="none" xmlns="http://www.w3.org/2000/svg">
<path fill-rule="evenodd" clip-rule="evenodd" d="M22.8604 2.1871C19.7563 -0.728962 15.0044 -0.729102 11.9004 2.1871C9.49364 4.44824 6.54481 7.56557 4.18849 11.1412C1.84299 14.7004 8.39233e-05 18.8416 7.62939e-06 23.1217C7.62939e-06 31.4486 6.60418 40.0006 17.3809 40.0006C24.2046 40.0006 29.3886 36.5537 32.249 31.8922C32.6518 31.2354 32.4458 30.3762 31.7891 29.9732C31.1323 29.5705 30.2731 29.7765 29.8701 30.4332C27.4893 34.3131 23.1819 37.2095 17.3809 37.2096C8.29337 37.2096 2.79103 30.0595 2.79103 23.1217C2.7911 19.6173 4.31539 16.0196 6.51856 12.6764C8.7108 9.34978 11.4918 6.40065 13.8115 4.22128C15.8416 2.31408 18.9202 2.31408 20.9502 4.22128C25.0248 8.04937 30.3276 14.0772 31.6592 20.2926C31.8207 21.0458 32.5622 21.526 33.3154 21.3648C34.069 21.2034 34.5491 20.4611 34.3877 19.7076C32.8617 12.585 26.9702 6.04829 22.8604 2.1871ZM23.2207 16.7476C22.6662 16.7883 22.1882 17.1544 22.0049 17.6793L19.168 25.8053L17.8399 23.2701C17.8308 23.2527 17.8216 23.2347 17.8125 23.2174C17.5741 22.762 17.3476 22.3301 17.1162 21.983C16.8565 21.5933 16.5329 21.2177 16.0557 20.9361C15.5823 20.6568 15.0973 20.5524 14.6318 20.5064C14.2105 20.4649 13.7109 20.4654 13.1738 20.4654H11.6279C10.8576 20.4656 10.2326 21.0896 10.2324 21.8599C10.2324 22.6305 10.8575 23.2553 11.6279 23.2555H13.1172C13.7304 23.2555 14.0898 23.2574 14.3574 23.2838C14.4791 23.2958 14.549 23.31 14.5879 23.3209C14.6216 23.3303 14.6334 23.3379 14.6377 23.3404C14.6418 23.3428 14.6497 23.348 14.668 23.3668C14.6906 23.39 14.7314 23.437 14.794 23.5308C14.9336 23.7403 15.0926 24.0389 15.3682 24.565L18.1885 29.9498C18.4464 30.4421 18.972 30.7345 19.5264 30.6939C20.0809 30.6532 20.5589 30.2872 20.7422 29.7623L23.5791 21.6363L24.9072 24.1715C24.9163 24.1888 24.9255 24.2069 24.9346 24.2242C25.173 24.6795 25.3995 25.1115 25.6309 25.4586C25.8906 25.8482 26.2143 26.2239 26.6914 26.5055C27.1648 26.7847 27.6499 26.8892 28.1152 26.9351C28.5366 26.9767 29.0362 26.9762 29.5733 26.9762H32.0938C32.8642 26.976 33.4891 26.352 33.4893 25.5816C33.4893 24.8111 32.8643 24.1862 32.0938 24.1861H29.6299C29.0166 24.1861 28.6573 24.1842 28.3897 24.1578C28.2678 24.1458 28.1981 24.1316 28.1592 24.1207C28.1255 24.1112 28.1136 24.1037 28.1094 24.1012C28.1053 24.0987 28.0972 24.0934 28.0791 24.0748C28.0564 24.0515 28.0156 24.0044 27.9531 23.9107C27.8135 23.7013 27.6554 23.4026 27.3799 22.8765L24.5586 17.4918C24.3006 16.9994 23.7751 16.707 23.2207 16.7476Z" fill="#88664D"/>
</svg>
