<svg width="14" height="15" viewBox="0 0 14 15" fill="none" xmlns="http://www.w3.org/2000/svg">
<path fill-rule="evenodd" clip-rule="evenodd" d="M6.60289 1.20053C3.68974 1.20053 1.20053 3.6716 1.20053 6.67245C1.20053 9.70844 3.71302 11.8946 6.29312 13.5256C6.38843 13.5784 6.49495 13.606 6.60289 13.606C6.71128 13.606 6.81822 13.5782 6.91383 13.5249C9.494 11.9128 12.0053 9.69832 12.0053 6.67245C12.0053 3.6716 9.51605 1.20053 6.60289 1.20053ZM0 6.67245C0 3.01618 3.01912 0 6.60289 0C10.1867 0 13.2058 3.01618 13.2058 6.67245C13.2058 10.4056 10.1258 12.9353 7.53899 14.5499L7.52994 14.5556L7.52068 14.5609C7.24144 14.7217 6.92513 14.8065 6.60289 14.8065C6.28066 14.8065 5.96435 14.7217 5.68511 14.5609L5.6745 14.5548L5.66414 14.5483C3.08737 12.9212 0 10.4183 0 6.67245ZM6.60289 4.8021C5.60835 4.8021 4.8021 5.60835 4.8021 6.60289C4.8021 7.59744 5.60835 8.40368 6.60289 8.40368C7.59744 8.40368 8.40368 7.59744 8.40368 6.60289C8.40368 5.60835 7.59744 4.8021 6.60289 4.8021ZM3.60158 6.60289C3.60158 4.94531 4.94531 3.60158 6.60289 3.60158C8.26048 3.60158 9.60421 4.94531 9.60421 6.60289C9.60421 8.26048 8.26048 9.60421 6.60289 9.60421C4.94531 9.60421 3.60158 8.26048 3.60158 6.60289Z" fill="#BBA188"/>
</svg>
