<svg width="36" height="40" viewBox="0 0 36 40" fill="none" xmlns="http://www.w3.org/2000/svg">
<path d="M24.4619 17.2441C30.5512 17.2443 35.5 22.2261 35.5 28.3721C35.5 34.5181 30.5512 39.4998 24.4619 39.5C22.1649 39.5 20.0469 38.806 18.2822 37.5967L18 37.4033L17.7178 37.5967C15.9531 38.806 13.8351 39.5 11.5381 39.5C5.4488 39.4998 0.5 34.5181 0.5 28.3721C0.500012 22.2261 5.44881 17.2443 11.5381 17.2441C13.8351 17.2441 15.9531 17.9382 17.7178 19.1475L18 19.3408L18.2822 19.1475C20.0469 17.9382 22.1649 17.2441 24.4619 17.2441ZM11.5381 19.0352C6.42157 19.0354 2.26954 23.2253 2.26953 28.3721C2.26953 33.5189 6.42156 37.7088 11.5381 37.709C13.1764 37.709 14.7398 37.2773 16.0713 36.5078L16.6016 36.2012L16.1963 35.7432C14.4659 33.7858 13.4229 31.2052 13.4229 28.3721C13.4229 25.5389 14.4659 22.9583 16.1963 21.001L16.6016 20.543L16.0713 20.2373C14.7399 19.4678 13.1766 19.0352 11.5381 19.0352ZM24.4619 19.0352C22.8234 19.0352 21.2601 19.4678 19.9287 20.2373L19.3984 20.543L19.8037 21.001C21.5341 22.9583 22.5771 25.5389 22.5771 28.3721C22.5771 31.2052 21.5341 33.7858 19.8037 35.7432L19.3984 36.2012L19.9287 36.5078C21.2602 37.2773 22.8236 37.709 24.4619 37.709C29.5784 37.7088 33.7305 33.5189 33.7305 28.3721C33.7305 23.2253 29.5784 19.0354 24.4619 19.0352ZM17.6318 22.0615C16.1082 23.7153 15.1924 25.938 15.1924 28.3721C15.1924 30.8061 16.1082 33.0288 17.6318 34.6826L18 35.082L18.3682 34.6826C19.8918 33.0288 20.8076 30.8061 20.8076 28.3721C20.8076 25.938 19.8918 23.7153 18.3682 22.0615L18 21.6621L17.6318 22.0615ZM21.6924 0.5C24.3789 0.500042 26.2695 2.7577 26.2695 5.37695C26.2695 8.57423 24.1606 11.07 22.2559 12.6787L22.2529 12.6807C21.2855 13.5112 20.3324 14.1278 19.6055 14.5674C19.2738 14.7583 19.0193 14.9006 18.8242 15.0029L18.4531 14.207L18.0713 13.3906L18.25 13.2891C18.4139 13.1946 18.5123 13.1294 18.6875 13.0312L18.6943 13.0273L18.7021 13.0234C19.358 12.6268 20.2519 12.0527 21.1309 11.3018L21.1299 11.3008C22.9202 9.79962 24.5 7.75783 24.5 5.37695C24.5 3.59356 23.2594 2.29106 21.6924 2.29102C20.947 2.29102 20.3973 2.45917 19.9639 2.71191L19.9551 2.7168L19.9473 2.72266C19.5024 3.00578 19.1168 3.4552 18.793 4.10547C18.6366 4.40847 18.3252 4.59766 18 4.59766C17.6748 4.59766 17.3634 4.40847 17.207 4.10547C16.8832 3.4552 16.4976 3.00578 16.0527 2.72266L16.0449 2.7168L16.0361 2.71191C15.6027 2.45917 15.053 2.29102 14.3076 2.29102C12.7406 2.29106 11.5 3.59356 11.5 5.37695C11.5 7.75758 13.0791 9.79966 14.8691 11.3008V11.3018C15.7481 12.0527 16.642 12.6268 17.2979 13.0234L17.3057 13.0273L17.3125 13.0312C17.4877 13.1294 17.5861 13.1946 17.75 13.2891L17.9277 13.3906L17.5469 14.207L17.1748 15.0029C16.9797 14.9006 16.7251 14.7583 16.3936 14.5674H16.3945C15.6676 14.1278 14.7145 13.5112 13.7471 12.6807L13.7441 12.6787L13.3848 12.3662C11.5838 10.7548 9.73047 8.37416 9.73047 5.37695C9.73049 2.7577 11.6211 0.500042 14.3076 0.5C15.3134 0.5 16.1955 0.720222 16.9893 1.2002V1.20117C17.2213 1.3515 17.4582 1.53816 17.6611 1.72559L18 2.03906L18.3389 1.72559C18.5417 1.53818 18.7778 1.35051 19.0098 1.2002C19.8037 0.719923 20.6863 0.5 21.6924 0.5Z" fill="#88664D" stroke="black"/>
</svg>
