<svg width="16" height="16" viewBox="0 0 16 16" fill="none" xmlns="http://www.w3.org/2000/svg">
<path d="M10.7266 0C11.8309 0.000110602 12.7266 0.895593 12.7266 2V3.4541C12.7266 3.75532 12.4819 4 12.1807 4C11.8795 3.99994 11.6357 3.75528 11.6357 3.4541V2C11.6357 1.49803 11.2285 1.09093 10.7266 1.09082H2C1.49797 1.09082 1.09082 1.49797 1.09082 2V13.6348C1.09082 14.1368 1.49797 14.5439 2 14.5439H10.7266C11.2285 14.5438 11.6357 14.1367 11.6357 13.6348V12.1807C11.6358 11.8795 11.8795 11.6358 12.1807 11.6357C12.4818 11.6357 12.7265 11.8795 12.7266 12.1807V13.6348C12.7266 14.7392 11.8309 15.6347 10.7266 15.6348H2C0.895525 15.6348 0 14.7392 0 13.6348V2C0 0.895525 0.895525 0 2 0H10.7266ZM4.36328 10.5449C4.56961 10.545 4.75815 10.6613 4.85059 10.8457L5.60938 12.3623H5.99902C6.30024 12.3623 6.54492 12.607 6.54492 12.9082C6.54485 13.2094 6.3002 13.4531 5.99902 13.4531H5.27246C5.06597 13.4531 4.87661 13.337 4.78418 13.1523L4.36328 12.3096L3.94141 13.1523C3.84894 13.3368 3.66049 13.4531 3.4541 13.4531H2.72656C2.42551 13.453 2.18171 13.2093 2.18164 12.9082C2.18164 12.6071 2.42547 12.3625 2.72656 12.3623H3.11719L3.875 10.8457C3.96743 10.6611 4.15679 10.5449 4.36328 10.5449ZM13.0361 4.73633C13.5331 4.23934 14.3389 4.23934 14.8359 4.73633L15.2627 5.16211C15.7594 5.65911 15.7596 6.46502 15.2627 6.96191L10.333 11.8916C10.0538 12.1708 9.6977 12.361 9.31055 12.4385L7.9248 12.7158C7.74599 12.7516 7.56059 12.6954 7.43164 12.5664C7.30277 12.4375 7.24745 12.252 7.2832 12.0732L7.55957 10.6875C7.63696 10.3006 7.82751 9.94513 8.10645 9.66602L13.0361 4.73633ZM8.87793 10.4365C8.75105 10.5634 8.66509 10.7254 8.62988 10.9014L8.5127 11.4854L9.09668 11.3682C9.27266 11.333 9.43462 11.247 9.56152 11.1201L12.8643 7.81738L12.1807 7.13379L8.87793 10.4365ZM14.0654 5.50684C13.9944 5.43585 13.8786 5.43587 13.8076 5.50684L12.9512 6.3623L13.6348 7.0459L14.4912 6.19043C14.5621 6.11952 14.5619 6.0046 14.4912 5.93359L14.0654 5.50684ZM7.81738 5.81738C8.11855 5.81745 8.3623 6.0621 8.3623 6.36328C8.36217 6.66435 8.11847 6.90813 7.81738 6.9082H3.4541C3.15296 6.9082 2.90833 6.66439 2.9082 6.36328C2.9082 6.06206 3.15288 5.81738 3.4541 5.81738H7.81738ZM9.27148 2.90918C9.57265 2.90918 9.8173 3.15295 9.81738 3.4541C9.81738 3.75532 9.5727 4 9.27148 4H3.4541C3.15288 4 2.9082 3.75532 2.9082 3.4541C2.90828 3.15295 3.15293 2.90918 3.4541 2.90918H9.27148Z" fill="#BBA188"/>
</svg>
