<svg width="29" height="40" viewBox="0 0 29 40" fill="none" xmlns="http://www.w3.org/2000/svg">
<path fill-rule="evenodd" clip-rule="evenodd" d="M5.83594 27.5661C11.088 24.2992 17.7518 24.2992 23.0039 27.5661C23.1629 27.665 23.3629 27.7829 23.5918 27.9176C24.6197 28.5229 26.231 29.4715 27.3311 30.5964C28.0221 31.303 28.6965 32.2524 28.8193 33.4255C28.9502 34.6758 28.425 35.8442 27.3965 36.8678C25.6804 38.5757 23.5662 39.9997 20.7998 39.9997H8.03906C5.27289 39.9995 3.15935 38.5756 1.44336 36.8678C0.414845 35.8442 -0.110328 34.6758 0.0205078 33.4255C0.143399 32.2524 0.817763 31.303 1.50879 30.5964C2.60884 29.4715 4.22011 28.5229 5.24805 27.9176C5.47698 27.7828 5.67694 27.665 5.83594 27.5661ZM21.5293 29.9362C17.1797 27.2307 11.6601 27.2307 7.31055 29.9362C7.05573 30.0947 6.78071 30.2577 6.49609 30.4264C5.4689 31.0356 4.31291 31.7203 3.50391 32.5475C3.0059 33.0568 2.82406 33.4473 2.7959 33.7165C2.77583 33.9086 2.8061 34.2862 3.41211 34.8893C4.88991 36.3601 6.33332 37.2095 8.03906 37.2096H20.7998C22.5058 37.2096 23.9498 36.3602 25.4277 34.8893C26.0337 34.2862 26.064 33.9086 26.0439 33.7165C26.0158 33.4473 25.8339 33.0567 25.3359 32.5475C24.527 31.7203 23.3709 31.0356 22.3438 30.4264C22.0592 30.2577 21.7841 30.0947 21.5293 29.9362ZM13.8711 0.112959C14.2227 -0.0376074 14.6192 -0.0376984 14.9707 0.112959L27.9639 5.68132C28.0847 5.72965 28.1966 5.79468 28.2988 5.87272C28.3714 5.92854 28.4385 5.99245 28.498 6.06315C28.7082 6.30686 28.837 6.62341 28.8389 6.9694V14.4206C28.8387 15.1907 28.2135 15.816 27.4434 15.8161V15.8122C26.6731 15.8122 26.0479 15.1869 26.0479 14.4167V9.08952L22.3271 10.6842V13.4841C22.3271 13.4885 22.3262 13.4933 22.3262 13.4977V15.3493C22.3261 19.7162 18.7859 23.2565 14.4189 23.2565C10.052 23.2565 6.51182 19.7162 6.51172 15.3493V13.4889C6.51172 13.4822 6.5126 13.4751 6.5127 13.4684V10.6862L0.84668 8.25847C0.333268 8.03889 0 7.53434 0 6.97624C1.47298e-05 6.41813 0.333245 5.91357 0.84668 5.69401L13.8711 0.112959ZM14.4199 13.9499C11.9572 13.9499 10.2438 14.2678 9.30273 14.5085V15.3493C9.30283 18.1749 11.5933 20.4654 14.4189 20.4655C17.2446 20.4655 19.5351 18.1749 19.5352 15.3493V14.5085C18.5966 14.2687 16.8834 13.9499 14.4199 13.9499ZM4.94043 6.97429L8.45996 8.48308C8.97347 8.70262 9.30664 9.20714 9.30664 9.7653V11.6462C10.4858 11.3969 12.195 11.161 14.4209 11.1608C16.6473 11.1609 18.3568 11.3988 19.5361 11.6462V9.7653C19.5361 9.20714 19.8693 8.70262 20.3828 8.48308L23.9023 6.97429L14.4209 2.91081L4.94043 6.97429Z" fill="#88664D"/>
</svg>
