<svg width="81" height="81" viewBox="0 0 81 81" fill="none" xmlns="http://www.w3.org/2000/svg">
<path d="M1.50012 62.0172L16.2727 43.2256C20.4617 37.897 28.4748 37.7227 32.8915 42.864L45.8794 57.9828M34.6638 44.9271C40.243 37.83 48.0169 27.7755 48.5226 27.1213C48.5407 27.0979 48.5579 27.0758 48.5763 27.0526C52.7728 21.7584 60.7604 21.5961 65.1674 26.7261L78.1553 41.8448M12.2587 79.5H68.7415C74.6833 79.5 79.5001 74.6832 79.5001 68.7414V12.2586C79.5001 6.3168 74.6833 1.5 68.7415 1.5H12.2587C6.31692 1.5 1.50012 6.3168 1.50012 12.2586V68.7414C1.50012 74.6832 6.31692 79.5 12.2587 79.5Z" stroke="#8B8E8D" stroke-width="3" stroke-linecap="round" stroke-linejoin="round"/>
</svg>
